# Blender v2.80 (sub 75) OBJ File: 'Eye.blend'
# www.blender.org
mtllib Eyelid.mtl
o Cylinder
v -1.000000 0.576000 -0.700000
v 1.000000 0.576000 -0.700000
v -1.000000 0.024707 -0.745980
v 1.000000 0.024706 -0.745980
v -1.000000 0.000000 0.000000
v 1.000000 -0.000000 0.000000
v -1.000000 0.024707 0.745980
v 1.000000 0.024706 0.745980
v -1.000000 0.288000 0.770000
v 1.000000 0.288000 0.770000
v -1.000000 0.695294 0.605980
v 1.000000 0.695293 0.605980
v -1.000000 0.864000 0.210000
v 1.000000 0.864000 0.210000
v -1.000000 0.839294 -0.325980
v 1.000000 0.839294 -0.325980
v 1.400000 0.240000 -0.210000
v 1.400000 0.010294 -0.223794
v 1.400000 -0.000000 0.000000
v 1.400000 0.010294 0.223794
v 1.400000 0.120000 0.231000
v 1.400000 0.289706 0.181794
v 1.400000 0.360000 0.063000
v 1.400000 0.349706 -0.097794
v -1.400000 0.240000 -0.105000
v -1.400000 0.010294 -0.111897
v -1.400000 0.000000 0.000000
v -1.400000 0.010294 0.111897
v -1.400000 0.120000 0.115500
v -1.400000 0.289706 0.090897
v -1.400000 0.360000 0.031500
v -1.400000 0.349706 -0.048897
v 0.000000 0.800000 -1.000000
v -0.000000 0.034315 -1.065686
v -0.000000 0.000000 0.000000
v -0.000000 0.034315 1.065686
v -0.000000 0.400000 1.100000
v -0.000000 0.965685 0.865685
v -0.000000 1.200000 0.300000
v -0.000000 1.165685 -0.465685
vt 1.000000 0.750000
vt 1.000000 1.000000
vt 0.875000 1.000000
vt 0.875000 0.750000
vt 0.750000 1.000000
vt 0.750000 0.750000
vt 0.625000 1.000000
vt 0.625000 0.750000
vt 0.500000 1.000000
vt 0.500000 0.750000
vt 0.375000 1.000000
vt 0.375000 0.750000
vt 0.250000 1.000000
vt 0.250000 0.750000
vt 0.500000 1.000000
vt 0.375000 1.000000
vt 0.125000 1.000000
vt 0.125000 0.750000
vt 0.000000 1.000000
vt 0.000000 0.750000
vt 0.625000 0.500000
vt 0.500000 0.500000
vt 0.500000 0.500000
vt 0.625000 0.500000
vt 0.419706 0.419706
vt 0.250000 0.490000
vt 0.080294 0.419706
vt 0.010000 0.250000
vt 0.080294 0.080294
vt 0.250000 0.010000
vt 0.419706 0.080294
vt 0.490000 0.250000
vt 0.125000 1.000000
vt 0.000000 1.000000
vt 1.000000 1.000000
vt 0.875000 1.000000
vt 0.750000 1.000000
vt 0.625000 1.000000
vt 0.250000 1.000000
vt 0.750000 0.490000
vt 0.919706 0.419706
vt 0.990000 0.250000
vt 0.919706 0.080294
vt 0.750000 0.010000
vt 0.580294 0.080294
vt 0.510000 0.250000
vt 0.580294 0.419706
vt 0.250000 0.500000
vt 0.125000 0.500000
vt 0.125000 0.500000
vt 0.250000 0.500000
vt 0.875000 0.500000
vt 0.750000 0.500000
vt 0.750000 0.500000
vt 0.875000 0.500000
vt 0.375000 0.500000
vt 0.375000 0.500000
vt 0.000000 0.500000
vt 0.000000 0.500000
vt 1.000000 0.500000
vt 1.000000 0.500000
vn 0.0000 0.5094 -0.8605
vn 0.5778 0.4000 -0.7114
vn 0.4423 -0.6091 -0.6583
vn 0.0000 -0.5994 -0.8004
vn 0.0030 -1.0000 0.0000
vn 0.0000 -1.0000 0.0000
vn 0.4305 -0.6620 0.6135
vn 0.0000 -0.6667 0.7453
vn 0.5730 0.1168 0.8112
vn 0.0000 0.1557 0.9878
vn 0.5836 0.5644 0.5838
vn 0.0000 0.7054 0.7088
vn 0.5703 0.8078 0.1489
vn 0.0000 0.9839 0.1785
vn 0.9403 0.0376 0.3381
vn 0.9344 0.2378 0.2651
vn 0.5736 0.7736 -0.2692
vn 0.0000 0.9461 -0.3238
vn -0.4651 -0.6522 0.5986
vn -0.6013 0.1089 0.7915
vn -0.9585 0.0284 0.2837
vn -0.7351 -0.6404 0.2224
vn 0.7323 -0.6232 -0.2746
vn 0.9342 0.1569 -0.3202
vn 0.9281 0.3508 -0.1245
vn 0.9288 0.3644 0.0670
vn 0.7237 -0.6431 0.2504
vn 0.6988 -0.7153 0.0000
vn -0.9538 0.1212 -0.2748
vn -0.7443 -0.6245 -0.2366
vn -0.6913 -0.7225 0.0000
vn -0.9499 0.1950 0.2440
vn -0.9181 0.3878 0.0809
vn -0.9252 0.3526 -0.1403
vn -0.5771 0.8018 0.1551
vn -0.5836 0.7634 -0.2768
vn -0.4726 -0.6028 -0.6428
vn -0.0074 -1.0000 0.0000
vn -0.6003 0.5466 0.5837
vn -0.5968 0.3838 -0.7046
usemtl Material.002
s 1
f 33/1/1 2/2/2 4/3/3 34/4/4
f 34/4/4 4/3/3 6/5/5 35/6/6
f 35/6/6 6/5/5 8/7/7 36/8/8
f 36/8/8 8/7/7 10/9/9 37/10/10
f 37/10/10 10/9/9 12/11/11 38/12/12
f 38/12/12 12/11/11 14/13/13 39/14/14
f 12/11/11 10/9/9 21/15/15 22/16/16
f 39/14/14 14/13/13 16/17/17 40/18/18
f 40/18/18 16/17/17 2/19/2 33/20/1
f 7/21/19 9/22/20 29/23/21 28/24/22
f 18/25/23 17/26/24 24/27/25 23/28/26 22/29/16 21/30/15 20/31/27 19/32/28
f 2/19/2 16/17/17 24/33/25 17/34/24
f 4/3/3 2/2/2 17/35/24 18/36/23
f 8/7/7 6/5/5 19/37/28 20/38/27
f 14/13/13 12/11/11 22/16/16 23/39/26
f 10/9/9 8/7/7 20/38/27 21/15/15
f 16/17/17 14/13/13 23/39/26 24/33/25
f 6/5/5 4/3/3 18/36/23 19/37/28
f 25/40/29 26/41/30 27/42/31 28/43/22 29/44/21 30/45/32 31/46/33 32/47/34
f 13/48/35 15/49/36 32/50/34 31/51/33
f 3/52/37 5/53/38 27/54/31 26/55/30
f 9/22/20 11/56/39 30/57/32 29/23/21
f 15/49/36 1/58/40 25/59/29 32/50/34
f 1/60/40 3/52/37 26/55/30 25/61/29
f 5/53/38 7/21/19 28/24/22 27/54/31
f 11/56/39 13/48/35 31/51/33 30/57/32
f 15/49/36 40/18/18 33/20/1 1/58/40
f 13/48/35 39/14/14 40/18/18 15/49/36
f 11/56/39 38/12/12 39/14/14 13/48/35
f 9/22/20 37/10/10 38/12/12 11/56/39
f 7/21/19 36/8/8 37/10/10 9/22/20
f 5/53/38 35/6/6 36/8/8 7/21/19
f 3/52/37 34/4/4 35/6/6 5/53/38
f 1/60/40 33/1/1 34/4/4 3/52/37
