# Blender v2.80 (sub 75) OBJ File: 'Tooth.blend'
# www.blender.org
mtllib Tooth.mtl
o Cylinder
v 0.000000 0.000000 -1.000000
v -0.000000 3.000000 -0.000000
v 0.707107 0.000000 -0.707107
v 1.000000 0.000000 0.000000
v 0.707107 0.000000 0.707107
v -0.000000 0.000000 1.000000
v -0.707107 0.000000 0.707107
v -1.000000 0.000000 -0.000000
v -0.707107 0.000000 -0.707107
vt 1.000000 0.500000
vt 0.875000 1.000000
vt 0.875000 0.500000
vt 0.750000 1.000000
vt 0.750000 0.500000
vt 0.625000 1.000000
vt 0.625000 0.500000
vt 0.500000 1.000000
vt 0.500000 0.500000
vt 0.375000 1.000000
vt 0.375000 0.500000
vt 0.250000 1.000000
vt 0.250000 0.500000
vt 0.125000 1.000000
vt 0.125000 0.500000
vt 0.000000 1.000000
vt 0.000000 0.500000
vt 0.750000 0.490000
vt 0.919706 0.419706
vt 0.990000 0.250000
vt 0.919706 0.080294
vt 0.750000 0.010000
vt 0.580294 0.080294
vt 0.510000 0.250000
vt 0.580294 0.419706
vn 0.0000 -0.5063 -0.8623
vn 0.0000 1.0000 0.0000
vn 0.6098 -0.5063 -0.6098
vn 0.8623 -0.5063 0.0000
vn 0.6098 -0.5063 0.6098
vn 0.0000 -0.5063 0.8623
vn -0.6098 -0.5063 0.6098
vn -0.8623 -0.5063 0.0000
vn -0.6098 -0.5063 -0.6098
usemtl Material.001
s 1
f 1/1/1 2/2/2 3/3/3
f 3/3/3 2/4/2 4/5/4
f 4/5/4 2/6/2 5/7/5
f 5/7/5 2/8/2 6/9/6
f 6/9/6 2/10/2 7/11/7
f 7/11/7 2/12/2 8/13/8
f 8/13/8 2/14/2 9/15/9
f 9/15/9 2/16/2 1/17/1
f 1/18/1 3/19/3 4/20/4 5/21/5 6/22/6 7/23/7 8/24/8 9/25/9
