# Blender v2.80 (sub 75) OBJ File: 'Trash1.blend'
# www.blender.org
mtllib Trash1.mtl
o Cylinder
v -0.000000 -0.991256 -0.818886
v -0.000000 1.006141 -1.021648
v 0.567029 -1.011726 -0.584909
v 0.618577 1.050634 -0.769317
v 0.801900 -1.061146 -0.020038
v 0.874800 1.158049 -0.160138
v 0.567029 -1.110566 0.544834
v 0.618577 1.265463 0.449042
v -0.000000 -1.131036 0.778811
v -0.000000 1.309956 0.701372
v -0.567029 -1.110566 0.544833
v -0.618577 1.265463 0.449042
v -0.801900 -1.061146 -0.020038
v -0.874800 1.158049 -0.160138
v -0.567029 -1.011726 -0.584909
v -0.618577 1.050634 -0.769317
v -0.000000 0.000000 -0.894725
v 0.636396 0.000000 -0.631121
v 0.900000 0.000000 0.005275
v 0.636396 0.000000 0.641671
v -0.000000 0.000000 0.905275
v -0.636396 0.000000 0.641671
v -0.900000 0.000000 0.005275
v -0.636396 0.000000 -0.631121
v 0.000000 0.115841 -0.996594
v 0.777817 0.143921 -0.775638
v 1.100000 0.211712 -0.000780
v 0.777817 0.279504 0.774078
v -0.000000 0.307584 1.095034
v -0.777818 0.279504 0.774078
v -1.100000 0.211712 -0.000780
v -0.777818 0.143921 -0.775638
v 0.777817 -0.185699 -0.790830
v 1.100000 -0.253491 -0.015972
v 0.777817 -0.321282 0.758886
v -0.000000 -0.349362 1.079842
v -0.777818 -0.321282 0.758885
v -1.100000 -0.253491 -0.015972
v -0.777818 -0.185699 -0.790830
v 0.000000 -0.157619 -1.011786
v 0.636396 -0.650805 -0.578993
v 0.900000 -0.595339 0.054982
v 0.636396 -0.539874 0.688956
v -0.000000 -0.516899 0.951557
v -0.636396 -0.539874 0.688956
v -0.900000 -0.595339 0.054982
v -0.636396 -0.650805 -0.578992
v -0.000000 -0.673779 -0.841593
v -0.000000 0.380692 -0.908434
v 0.636396 0.448917 -0.653812
v 0.900000 0.613629 -0.039100
v 0.636396 0.778340 0.575611
v -0.000000 0.846566 0.830233
v -0.636396 0.778340 0.575611
v -0.900000 0.613629 -0.039100
v -0.636396 0.448917 -0.653812
v -0.000000 0.865335 -1.080561
v 0.681736 0.916828 -0.803011
v 0.964121 1.041142 -0.132947
v 0.681736 1.165455 0.537117
v -0.000000 1.216948 0.814667
v -0.681737 1.165455 0.537117
v -0.964121 1.041142 -0.132947
v -0.681737 0.916828 -0.803011
v 0.630765 -0.883231 -0.633344
v 0.892036 -0.925434 -0.004979
v 0.630765 -0.967637 0.623386
v -0.000000 -0.985118 0.883663
v -0.630765 -0.967637 0.623386
v -0.892036 -0.925434 -0.004979
v -0.630765 -0.883231 -0.633343
v -0.000000 -0.865750 -0.893621
vt 0.450000 0.653636
vt 0.450000 0.662500
vt 0.400000 0.662500
vt 0.400000 0.653636
vt 0.350000 0.662500
vt 0.350000 0.653636
vt 0.300000 0.662500
vt 0.300000 0.653636
vt 0.250000 0.662500
vt 0.250000 0.653636
vt 0.200000 0.662500
vt 0.200000 0.653636
vt 0.150000 0.662500
vt 0.150000 0.653636
vt 0.368794 0.668794
vt 0.250000 0.718000
vt 0.131206 0.668794
vt 0.082000 0.550000
vt 0.131206 0.431206
vt 0.250000 0.382000
vt 0.368794 0.431206
vt 0.418000 0.550000
vt 0.100000 0.662500
vt 0.100000 0.653636
vt 0.050000 0.662500
vt 0.050000 0.653636
vt 0.250000 0.368000
vt 0.368794 0.318794
vt 0.418000 0.200000
vt 0.368794 0.081206
vt 0.250000 0.032000
vt 0.131206 0.081206
vt 0.082000 0.200000
vt 0.131206 0.318794
vt 0.600000 0.865000
vt 0.600000 0.875000
vt 0.550000 0.875000
vt 0.550000 0.865000
vt 0.650000 0.865000
vt 0.650000 0.875000
vt 0.700000 0.865000
vt 0.700000 0.875000
vt 0.750000 0.865000
vt 0.750000 0.875000
vt 0.800000 0.865000
vt 0.800000 0.875000
vt 0.850000 0.865000
vt 0.850000 0.875000
vt 0.900000 0.865000
vt 0.900000 0.875000
vt 0.950000 0.865000
vt 0.950000 0.875000
vt 0.600000 0.885000
vt 0.550000 0.885000
vt 0.650000 0.885000
vt 0.700000 0.885000
vt 0.750000 0.885000
vt 0.800000 0.885000
vt 0.850000 0.885000
vt 0.900000 0.885000
vt 0.950000 0.885000
vt 0.950000 0.856000
vt 0.900000 0.856000
vt 0.850000 0.856000
vt 0.800000 0.856000
vt 0.750000 0.856000
vt 0.700000 0.856000
vt 0.650000 0.856000
vt 0.600000 0.856000
vt 0.550000 0.856000
vt 0.600000 0.784326
vt 0.550000 0.784326
vt 0.650000 0.784326
vt 0.700000 0.784326
vt 0.750000 0.784326
vt 0.800000 0.784326
vt 0.850000 0.784326
vt 0.900000 0.784326
vt 0.950000 0.784326
vt 0.600000 0.894000
vt 0.550000 0.894000
vt 0.650000 0.894000
vt 0.700000 0.894000
vt 0.750000 0.894000
vt 0.800000 0.894000
vt 0.850000 0.894000
vt 0.900000 0.894000
vt 0.950000 0.894000
vt 0.600000 0.966136
vt 0.550000 0.966136
vt 0.650000 0.966136
vt 0.700000 0.966136
vt 0.750000 0.966136
vt 0.800000 0.966136
vt 0.850000 0.966136
vt 0.900000 0.966136
vt 0.950000 0.966136
vt 0.450000 0.462500
vt 0.450000 0.471826
vt 0.400000 0.471826
vt 0.400000 0.462500
vt 0.350000 0.471826
vt 0.350000 0.462500
vt 0.300000 0.471826
vt 0.300000 0.462500
vt 0.250000 0.471826
vt 0.250000 0.462500
vt 0.200000 0.471826
vt 0.200000 0.462500
vt 0.150000 0.471826
vt 0.150000 0.462500
vt 0.100000 0.471826
vt 0.100000 0.462500
vt 0.050000 0.471826
vt 0.050000 0.462500
vn 0.0000 0.0121 -0.9999
vn 0.0000 0.7196 -0.6944
vn 0.3838 0.7537 -0.5334
vn 0.6928 0.0741 -0.7173
vn 0.5292 0.8337 -0.1576
vn 0.9743 0.2216 -0.0400
vn 0.3641 0.9098 0.1988
vn 0.6850 0.3660 0.6300
vn 0.0000 0.9402 0.3405
vn 0.0000 0.4248 0.9053
vn -0.3641 0.9098 0.1988
vn -0.6850 0.3660 0.6300
vn -0.5292 0.8337 -0.1576
vn -0.9743 0.2216 -0.0400
vn -0.3838 0.7537 -0.5334
vn -0.6928 0.0741 -0.7173
vn 0.0000 -0.7909 -0.6119
vn 0.3858 -0.8020 -0.4560
vn 0.5553 -0.8287 -0.0695
vn 0.3992 -0.8554 0.3301
vn 0.0000 -0.8665 0.4993
vn -0.3992 -0.8554 0.3301
vn -0.5553 -0.8287 -0.0695
vn -0.3858 -0.8020 -0.4560
vn -0.6715 0.1345 -0.7286
vn -0.7121 -0.0572 -0.6997
vn 0.0000 -0.0556 -0.9984
vn 0.0000 0.1743 -0.9847
vn -0.9980 0.0620 -0.0142
vn -0.9957 -0.0558 0.0733
vn -0.7221 -0.0192 0.6915
vn -0.6776 -0.0539 0.7334
vn 0.0000 -0.0537 0.9985
vn 0.0000 -0.0536 0.9985
vn 0.7220 -0.0192 0.6915
vn 0.6776 -0.0539 0.7334
vn 0.9980 0.0620 -0.0142
vn 0.9957 -0.0558 0.0733
vn 0.6715 0.1345 -0.7286
vn 0.7121 -0.0572 -0.6997
vn -0.6678 -0.1804 -0.7221
vn 0.0000 -0.2107 -0.9775
vn -0.9917 -0.1285 -0.0011
vn -0.7060 -0.0664 0.7051
vn 0.0000 -0.0383 0.9992
vn 0.7060 -0.0664 0.7051
vn 0.9917 -0.1285 -0.0011
vn 0.6678 -0.1804 -0.7221
vn 0.0000 -0.0864 -0.9962
vn 0.7049 -0.1764 -0.6870
vn 0.9553 -0.2931 0.0385
vn 0.6381 -0.3600 0.6807
vn 0.0000 -0.3842 0.9232
vn -0.6381 -0.3600 0.6807
vn -0.9553 -0.2931 0.0385
vn -0.7049 -0.1764 -0.6870
vn -0.6769 -0.1743 -0.7151
vn 0.0000 -0.1271 -0.9919
vn -0.9615 -0.2730 -0.0306
vn -0.6765 -0.3429 0.6518
vn 0.0000 -0.3652 0.9309
vn 0.6765 -0.3429 0.6518
vn 0.9615 -0.2730 -0.0306
vn 0.6769 -0.1743 -0.7151
vn -0.6856 0.1147 -0.7188
vn 0.0000 0.0667 -0.9978
vn -0.9851 0.1720 -0.0061
vn -0.6931 0.2263 0.6844
vn 0.0000 0.2549 0.9669
vn 0.6931 0.2263 0.6844
vn 0.9851 0.1720 -0.0061
vn 0.6856 0.1147 -0.7188
usemtl Material.001
s 1
f 57/1/1 2/2/2 4/3/3 58/4/4
f 58/4/4 4/3/3 6/5/5 59/6/6
f 59/6/6 6/5/5 8/7/7 60/8/8
f 60/8/8 8/7/7 10/9/9 61/10/10
f 61/10/10 10/9/9 12/11/11 62/12/12
f 62/12/12 12/11/11 14/13/13 63/14/14
f 4/15/3 2/16/2 16/17/15 14/18/13 12/19/11 10/20/9 8/21/7 6/22/5
f 63/14/14 14/13/13 16/23/15 64/24/16
f 64/24/16 16/23/15 2/25/2 57/26/1
f 1/27/17 3/28/18 5/29/19 7/30/20 9/31/21 11/32/22 13/33/23 15/34/24
f 39/35/25 24/36/26 17/37/27 40/38/28
f 38/39/29 23/40/30 24/36/26 39/35/25
f 37/41/31 22/42/32 23/40/30 38/39/29
f 36/43/33 21/44/34 22/42/32 37/41/31
f 35/45/35 20/46/36 21/44/34 36/43/33
f 34/47/37 19/48/38 20/46/36 35/45/35
f 33/49/39 18/50/40 19/48/38 34/47/37
f 40/51/28 17/52/27 18/50/40 33/49/39
f 24/36/26 32/53/41 25/54/42 17/37/27
f 23/40/30 31/55/43 32/53/41 24/36/26
f 22/42/32 30/56/44 31/55/43 23/40/30
f 21/44/34 29/57/45 30/56/44 22/42/32
f 20/46/36 28/58/46 29/57/45 21/44/34
f 19/48/38 27/59/47 28/58/46 20/46/36
f 18/50/40 26/60/48 27/59/47 19/48/38
f 17/52/27 25/61/42 26/60/48 18/50/40
f 48/62/49 40/51/28 33/49/39 41/63/50
f 41/63/50 33/49/39 34/47/37 42/64/51
f 42/64/51 34/47/37 35/45/35 43/65/52
f 43/65/52 35/45/35 36/43/33 44/66/53
f 44/66/53 36/43/33 37/41/31 45/67/54
f 45/67/54 37/41/31 38/39/29 46/68/55
f 46/68/55 38/39/29 39/35/25 47/69/56
f 47/69/56 39/35/25 40/38/28 48/70/49
f 71/71/57 47/69/56 48/70/49 72/72/58
f 70/73/59 46/68/55 47/69/56 71/71/57
f 69/74/60 45/67/54 46/68/55 70/73/59
f 68/75/61 44/66/53 45/67/54 69/74/60
f 67/76/62 43/65/52 44/66/53 68/75/61
f 66/77/63 42/64/51 43/65/52 67/76/62
f 65/78/64 41/63/50 42/64/51 66/77/63
f 72/79/58 48/62/49 41/63/50 65/78/64
f 32/53/41 56/80/65 49/81/66 25/54/42
f 31/55/43 55/82/67 56/80/65 32/53/41
f 30/56/44 54/83/68 55/82/67 31/55/43
f 29/57/45 53/84/69 54/83/68 30/56/44
f 28/58/46 52/85/70 53/84/69 29/57/45
f 27/59/47 51/86/71 52/85/70 28/58/46
f 26/60/48 50/87/72 51/86/71 27/59/47
f 25/61/42 49/88/66 50/87/72 26/60/48
f 56/80/65 64/89/16 57/90/1 49/81/66
f 55/82/67 63/91/14 64/89/16 56/80/65
f 54/83/68 62/92/12 63/91/14 55/82/67
f 53/84/69 61/93/10 62/92/12 54/83/68
f 52/85/70 60/94/8 61/93/10 53/84/69
f 51/86/71 59/95/6 60/94/8 52/85/70
f 50/87/72 58/96/4 59/95/6 51/86/71
f 49/88/66 57/97/1 58/96/4 50/87/72
f 1/98/17 72/99/58 65/100/64 3/101/18
f 3/101/18 65/100/64 66/102/63 5/103/19
f 5/103/19 66/102/63 67/104/62 7/105/20
f 7/105/20 67/104/62 68/106/61 9/107/21
f 9/107/21 68/106/61 69/108/60 11/109/22
f 11/109/22 69/108/60 70/110/59 13/111/23
f 13/111/23 70/110/59 71/112/57 15/113/24
f 15/113/24 71/112/57 72/114/58 1/115/17
