# Blender v2.80 (sub 75) OBJ File: 'Trash3.blend'
# www.blender.org
mtllib Trash3.mtl
o Cylinder
v -0.000000 -0.909396 -0.615138
v -0.000000 0.801946 -0.343967
v 0.346403 -0.941558 -0.475304
v 0.158392 0.813457 -0.279377
v 0.489888 -1.019204 -0.137715
v 0.224000 0.841248 -0.123442
v 0.346403 -1.096849 0.199874
v 0.158392 0.869038 0.032493
v -0.000000 -1.129011 0.339708
v -0.000000 0.880549 0.097083
v -0.346403 -1.096849 0.199874
v -0.158392 0.869038 0.032493
v -0.489888 -1.019204 -0.137715
v -0.224000 0.841248 -0.123442
v -0.346403 -0.941558 -0.475304
v -0.158392 0.813457 -0.279377
v -0.000000 -0.587737 -0.822501
v 0.544472 -0.638288 -0.602711
v 0.770000 -0.760330 -0.072093
v 0.544472 -0.882372 0.458525
v -0.000000 -0.932924 0.678314
v -0.544472 -0.882372 0.458525
v -0.770000 -0.760330 -0.072093
v -0.544472 -0.638288 -0.602711
v -0.000000 0.428443 -0.833989
v 0.544472 0.460128 -0.610698
v 0.770000 0.536621 -0.071626
v 0.544472 0.613115 0.467446
v -0.000000 0.644799 0.690737
v -0.544472 0.613115 0.467446
v -0.770000 0.536621 -0.071626
v -0.544472 0.460128 -0.610698
v -0.000000 0.633396 -0.653398
v 0.400930 0.662534 -0.489904
v 0.567000 0.732879 -0.095194
v 0.400930 0.803224 0.299516
v -0.000000 0.832362 0.463011
v -0.400930 0.803224 0.299516
v -0.567000 0.732879 -0.095194
v -0.400930 0.662534 -0.489904
v -0.000000 1.124857 -0.401517
v 0.158392 1.136369 -0.336926
v 0.224000 1.164160 -0.180991
v 0.158392 1.191950 -0.025056
v -0.000000 1.203461 0.039534
v -0.158392 1.191950 -0.025056
v -0.224000 1.164160 -0.180991
v -0.158392 1.136369 -0.336926
v 0.539028 0.233859 -0.568338
v 0.762300 0.280838 -0.031362
v 0.539028 0.327818 0.505615
v -0.000000 0.347277 0.728038
v -0.539028 0.327818 0.505615
v -0.762300 0.280838 -0.031362
v -0.539028 0.233859 -0.568338
v -0.000000 0.214400 -0.790761
v 0.529227 -0.389881 -0.530145
v 0.748440 -0.481780 -0.008958
v 0.529227 -0.573679 0.512229
v -0.000000 -0.611745 0.728111
v -0.529227 -0.573679 0.512229
v -0.748440 -0.481780 -0.008958
v -0.529227 -0.389881 -0.530145
v -0.000000 -0.351815 -0.746028
v -0.000000 -0.045100 -0.660185
v 0.490025 -0.045100 -0.457210
v 0.693000 -0.045100 0.032815
v 0.490025 -0.045100 0.522840
v -0.000000 -0.045100 0.725815
v -0.490025 -0.045100 0.522840
v -0.693000 -0.045100 0.032815
v -0.490025 -0.045100 -0.457210
v -0.000000 0.098974 -0.566110
v 0.400930 0.106211 -0.400355
v 0.567000 0.123682 -0.000189
v 0.400930 0.141154 0.399978
v -0.000000 0.148391 0.565733
v -0.400930 0.141154 0.399978
v -0.567000 0.123682 -0.000189
v -0.400930 0.106211 -0.400355
v 0.392020 -0.267430 -0.379046
v 0.554400 -0.301467 0.009996
v 0.392020 -0.335504 0.399039
v -0.000000 -0.349602 0.560185
v -0.392020 -0.335504 0.399038
v -0.554400 -0.301467 0.009996
v -0.392020 -0.267430 -0.379046
v -0.000000 -0.253332 -0.540192
vt 0.950000 0.740500
vt 0.950000 0.765500
vt 0.900000 0.765500
vt 0.900000 0.740500
vt 0.850000 0.765500
vt 0.850000 0.740500
vt 0.800000 0.765500
vt 0.800000 0.740500
vt 0.750000 0.765500
vt 0.750000 0.740500
vt 0.700000 0.765500
vt 0.700000 0.740500
vt 0.650000 0.765500
vt 0.650000 0.740500
vt 0.130000 0.936300
vt 0.160000 0.936300
vt 0.160000 0.936300
vt 0.130000 0.936300
vt 0.600000 0.765500
vt 0.600000 0.740500
vt 0.550000 0.765500
vt 0.550000 0.740500
vt 0.850000 0.561500
vt 0.917882 0.533382
vt 0.946000 0.465500
vt 0.917882 0.397618
vt 0.850000 0.369500
vt 0.782118 0.397618
vt 0.754000 0.465500
vt 0.782118 0.533382
vt 0.600000 0.565500
vt 0.600000 0.665500
vt 0.550000 0.665500
vt 0.550000 0.565500
vt 0.650000 0.565500
vt 0.650000 0.665500
vt 0.700000 0.565500
vt 0.700000 0.665500
vt 0.750000 0.565500
vt 0.750000 0.665500
vt 0.800000 0.565500
vt 0.800000 0.665500
vt 0.850000 0.565500
vt 0.850000 0.665500
vt 0.900000 0.565500
vt 0.900000 0.665500
vt 0.950000 0.565500
vt 0.950000 0.665500
vt 0.600000 0.705500
vt 0.600000 0.715500
vt 0.550000 0.715500
vt 0.550000 0.705500
vt 0.650000 0.705500
vt 0.650000 0.715500
vt 0.700000 0.705500
vt 0.700000 0.715500
vt 0.750000 0.705500
vt 0.750000 0.715500
vt 0.800000 0.705500
vt 0.800000 0.715500
vt 0.850000 0.705500
vt 0.850000 0.715500
vt 0.900000 0.705500
vt 0.900000 0.715500
vt 0.950000 0.705500
vt 0.950000 0.715500
vt 0.230729 0.797029
vt 0.190000 0.813900
vt 0.149271 0.797029
vt 0.132400 0.756300
vt 0.149271 0.715571
vt 0.190000 0.698700
vt 0.230729 0.715571
vt 0.247600 0.756300
vt 0.340000 0.936300
vt 0.370000 0.936300
vt 0.370000 0.936300
vt 0.340000 0.936300
vt 0.280000 0.936300
vt 0.310000 0.936300
vt 0.310000 0.936300
vt 0.280000 0.936300
vt 0.190000 0.936300
vt 0.220000 0.936300
vt 0.220000 0.936300
vt 0.190000 0.936300
vt 0.250000 0.936300
vt 0.250000 0.936300
vt 0.450000 0.447000
vt 0.450000 0.454000
vt 0.400000 0.454000
vt 0.400000 0.447000
vt 0.350000 0.454000
vt 0.350000 0.447000
vt 0.300000 0.454000
vt 0.300000 0.447000
vt 0.250000 0.454000
vt 0.250000 0.447000
vt 0.200000 0.454000
vt 0.200000 0.447000
vt 0.150000 0.454000
vt 0.150000 0.447000
vt 0.100000 0.454000
vt 0.100000 0.447000
vt 0.050000 0.454000
vt 0.050000 0.447000
vt 0.600000 0.677500
vt 0.550000 0.677500
vt 0.650000 0.677500
vt 0.700000 0.677500
vt 0.750000 0.677500
vt 0.800000 0.677500
vt 0.850000 0.677500
vt 0.900000 0.677500
vt 0.950000 0.677500
vt 0.100000 0.433000
vt 0.100000 0.440000
vt 0.050000 0.440000
vt 0.050000 0.433000
vt 0.150000 0.433000
vt 0.150000 0.440000
vt 0.200000 0.433000
vt 0.200000 0.440000
vt 0.250000 0.433000
vt 0.250000 0.440000
vt 0.300000 0.433000
vt 0.300000 0.440000
vt 0.350000 0.433000
vt 0.350000 0.440000
vt 0.400000 0.433000
vt 0.400000 0.440000
vt 0.450000 0.433000
vt 0.450000 0.440000
vt 0.450000 0.426000
vt 0.400000 0.426000
vt 0.350000 0.426000
vt 0.300000 0.426000
vt 0.250000 0.426000
vt 0.200000 0.426000
vt 0.150000 0.426000
vt 0.100000 0.426000
vt 0.050000 0.426000
vn 0.0000 0.7544 -0.6564
vn 0.0000 0.5216 -0.8532
vn 0.5275 0.5611 -0.6379
vn 0.3816 0.7732 -0.5065
vn 0.7451 0.6562 -0.1189
vn 0.5558 0.8213 -0.1282
vn 0.5262 0.7510 0.3987
vn 0.4036 0.8736 0.2718
vn 0.0000 0.7902 0.6128
vn 0.0000 0.8963 0.4434
vn -0.5262 0.7510 0.3987
vn -0.4036 0.8736 0.2718
vn -0.7451 0.6562 -0.1189
vn -0.5558 0.8213 -0.1282
vn -0.5275 0.5611 -0.6379
vn -0.5490 0.5242 -0.6511
vn 0.0000 0.4842 -0.8749
vn -0.3816 0.7732 -0.5065
vn 0.0000 -0.7685 -0.6398
vn 0.3168 -0.7990 -0.5112
vn 0.4458 -0.8719 -0.2028
vn 0.3136 -0.9440 0.1024
vn 0.0000 -0.9737 0.2279
vn -0.3136 -0.9440 0.1024
vn -0.4458 -0.8719 -0.2028
vn -0.3168 -0.7990 -0.5112
vn -0.6694 -0.1639 -0.7245
vn 0.0000 -0.0988 -0.9951
vn -0.9448 -0.3195 -0.0729
vn -0.6665 -0.4731 0.5762
vn 0.0000 -0.5361 0.8441
vn 0.6665 -0.4731 0.5762
vn 0.9448 -0.3195 -0.0729
vn 0.6694 -0.1639 -0.7245
vn -0.6309 -0.5130 -0.5820
vn -0.6584 0.2550 -0.7081
vn 0.0000 0.2196 -0.9756
vn 0.0000 -0.5568 -0.8306
vn -0.9130 -0.4060 0.0398
vn -0.9387 0.3403 -0.0541
vn -0.6595 -0.2970 0.6905
vn -0.6685 0.4252 0.6101
vn 0.0000 -0.2514 0.9679
vn 0.0000 0.4602 0.8878
vn 0.6595 -0.2970 0.6905
vn 0.6685 0.4252 0.6101
vn 0.9130 -0.4060 0.0398
vn 0.9387 0.3403 -0.0541
vn 0.6309 -0.5130 -0.5820
vn 0.6584 0.2550 -0.7081
vn 0.5490 0.5242 -0.6511
vn -0.7764 0.6205 -0.1106
vn -0.5490 0.7168 0.4299
vn 0.0000 0.7567 0.6537
vn 0.5490 0.7168 0.4299
vn 0.7764 0.6205 -0.1106
vn 0.0000 -0.3043 -0.9525
vn 0.7009 -0.2578 -0.6650
vn 0.9883 -0.1486 0.0331
vn 0.6915 -0.0459 0.7209
vn 0.0000 -0.0056 1.0000
vn -0.6915 -0.0459 0.7209
vn -0.9883 -0.1486 0.0331
vn -0.7009 -0.2578 -0.6650
vn -0.6366 0.5485 -0.5421
vn 0.0000 0.6131 -0.7900
vn -0.9155 0.3950 0.0761
vn -0.6551 0.2459 0.7143
vn 0.0000 0.1856 0.9826
vn 0.6551 0.2459 0.7143
vn 0.9155 0.3950 0.0761
vn 0.6366 0.5485 -0.5421
vn -0.7173 0.2895 -0.6338
vn -0.7147 0.0402 -0.6982
vn 0.0000 0.0271 -0.9996
vn 0.0000 0.3361 -0.9418
vn -0.9801 0.1869 0.0661
vn -0.9978 0.0644 0.0141
vn -0.6767 0.0946 0.7301
vn -0.6985 0.0807 0.7110
vn 0.0000 0.0588 0.9983
vn 0.0000 0.0857 0.9963
vn 0.6767 0.0946 0.7301
vn 0.6985 0.0807 0.7110
vn 0.9801 0.1869 0.0661
vn 0.9978 0.0644 0.0141
vn 0.7173 0.2895 -0.6338
vn 0.7147 0.0402 -0.6982
usemtl Material.001
s 1
f 33/1/1 2/2/2 4/3/3 34/4/4
f 34/4/4 4/3/3 6/5/5 35/6/6
f 35/6/6 6/5/5 8/7/7 36/8/8
f 36/8/8 8/7/7 10/9/9 37/10/10
f 37/10/10 10/9/9 12/11/11 38/12/12
f 38/12/12 12/11/11 14/13/13 39/14/14
f 2/15/2 16/16/15 48/17/16 41/18/17
f 39/14/14 14/13/13 16/19/15 40/20/18
f 40/20/18 16/19/15 2/21/2 33/22/1
f 1/23/19 3/24/20 5/25/21 7/26/22 9/27/23 11/28/24 13/29/25 15/30/26
f 15/31/26 24/32/27 17/33/28 1/34/19
f 13/35/25 23/36/29 24/32/27 15/31/26
f 11/37/24 22/38/30 23/36/29 13/35/25
f 9/39/23 21/40/31 22/38/30 11/37/24
f 7/41/22 20/42/32 21/40/31 9/39/23
f 5/43/21 19/44/33 20/42/32 7/41/22
f 3/45/20 18/46/34 19/44/33 5/43/21
f 1/47/19 17/48/28 18/46/34 3/45/20
f 55/49/35 32/50/36 25/51/37 56/52/38
f 54/53/39 31/54/40 32/50/36 55/49/35
f 53/55/41 30/56/42 31/54/40 54/53/39
f 52/57/43 29/58/44 30/56/42 53/55/41
f 51/59/45 28/60/46 29/58/44 52/57/43
f 50/61/47 27/62/48 28/60/46 51/59/45
f 49/63/49 26/64/50 27/62/48 50/61/47
f 56/65/38 25/66/37 26/64/50 49/63/49
f 32/50/36 40/20/18 33/22/1 25/51/37
f 31/54/40 39/14/14 40/20/18 32/50/36
f 30/56/42 38/12/12 39/14/14 31/54/40
f 29/58/44 37/10/10 38/12/12 30/56/42
f 28/60/46 36/8/8 37/10/10 29/58/44
f 27/62/48 35/6/6 36/8/8 28/60/46
f 26/64/50 34/4/4 35/6/6 27/62/48
f 25/66/37 33/1/1 34/4/4 26/64/50
f 42/67/51 41/68/17 48/69/16 47/70/52 46/71/53 45/72/54 44/73/55 43/74/56
f 4/75/3 2/76/2 41/77/17 42/78/51
f 8/79/7 6/80/5 43/81/56 44/82/55
f 14/83/13 12/84/11 46/85/53 47/86/52
f 10/87/9 8/79/7 44/82/55 45/88/54
f 16/16/15 14/83/13 47/86/52 48/17/16
f 6/80/5 4/75/3 42/78/51 43/81/56
f 12/84/11 10/87/9 45/88/54 46/85/53
f 73/89/57 56/90/38 49/91/49 74/92/58
f 74/92/58 49/91/49 50/93/47 75/94/59
f 75/94/59 50/93/47 51/95/45 76/96/60
f 76/96/60 51/95/45 52/97/43 77/98/61
f 77/98/61 52/97/43 53/99/41 78/100/62
f 78/100/62 53/99/41 54/101/39 79/102/63
f 79/102/63 54/101/39 55/103/35 80/104/64
f 80/104/64 55/103/35 56/105/38 73/106/57
f 24/32/27 63/107/65 64/108/66 17/33/28
f 23/36/29 62/109/67 63/107/65 24/32/27
f 22/38/30 61/110/68 62/109/67 23/36/29
f 21/40/31 60/111/69 61/110/68 22/38/30
f 20/42/32 59/112/70 60/111/69 21/40/31
f 19/44/33 58/113/71 59/112/70 20/42/32
f 18/46/34 57/114/72 58/113/71 19/44/33
f 17/48/28 64/115/66 57/114/72 18/46/34
f 87/116/73 72/117/74 65/118/75 88/119/76
f 86/120/77 71/121/78 72/117/74 87/116/73
f 85/122/79 70/123/80 71/121/78 86/120/77
f 84/124/81 69/125/82 70/123/80 85/122/79
f 83/126/83 68/127/84 69/125/82 84/124/81
f 82/128/85 67/129/86 68/127/84 83/126/83
f 81/130/87 66/131/88 67/129/86 82/128/85
f 88/132/76 65/133/75 66/131/88 81/130/87
f 72/117/74 80/104/64 73/106/57 65/118/75
f 71/121/78 79/102/63 80/104/64 72/117/74
f 70/123/80 78/100/62 79/102/63 71/121/78
f 69/125/82 77/98/61 78/100/62 70/123/80
f 68/127/84 76/96/60 77/98/61 69/125/82
f 67/129/86 75/94/59 76/96/60 68/127/84
f 66/131/88 74/92/58 75/94/59 67/129/86
f 65/133/75 73/89/57 74/92/58 66/131/88
f 64/134/66 88/132/76 81/130/87 57/135/72
f 57/135/72 81/130/87 82/128/85 58/136/71
f 58/136/71 82/128/85 83/126/83 59/137/70
f 59/137/70 83/126/83 84/124/81 60/138/69
f 60/138/69 84/124/81 85/122/79 61/139/68
f 61/139/68 85/122/79 86/120/77 62/140/67
f 62/140/67 86/120/77 87/116/73 63/141/65
f 63/141/65 87/116/73 88/119/76 64/142/66
